# xmcd CD database file
#
# Track frame offsets:
#	150
#	19363
#	32891
#	48396
#	67062
#	84671
#	103949
#	127716
#	145883
#	157473
#	177754
#	189987
#
# Disc length: 2708 seconds
#
# Revision: 0
# Processed by: cddbd v1.5.1PL0 Copyright (c) Steve Scherf et al.
# Submitted via: CDex 1.51
#
DISCID=ab0a920c
DTITLE=Dooley Wilson - Tuff Break For Hand-Job
DYEAR=2005
DGENRE=Blues
TTITLE0=Bundle Up and Go
TTITLE1=When I Was Young
TTITLE2=Moon Goin' Down
TTITLE3=Gwyne Over The Hill
TTITLE4=Easy When You Put It On Me
TTITLE5=Looziana Monkeyhouse Blues
TTITLE6=Train, Train
TTITLE7=Wish I Was In Hawaii, Sitting Down
TTITLE8=France Blues
TTITLE9=Rolling Stone
TTITLE10=Jesus Is On The Mainline
TTITLE11=When I Was Young
EXTD=YEAR: 2005
EXTT0=
EXTT1=
EXTT2=
EXTT3=
EXTT4=
EXTT5=
EXTT6=
EXTT7=
EXTT8=
EXTT9=
EXTT10=
EXTT11=
PLAYORDER=
